<svg xmlns="http://www.w3.org/2000/svg" version="1.1" xmlns:xlink="http://www.w3.org/1999/xlink" xmlns:svgjs="http://svgjs.dev/svgjs" width="2000" height="328" viewBox="0 0 2000 328"><g transform="matrix(1,0,0,1,-1.2121212121213603,-1.0090025578813027)"><svg viewBox="0 0 396 65" data-background-color="#ffffff" preserveAspectRatio="xMidYMid meet" height="328" width="2000" xmlns="http://www.w3.org/2000/svg" xmlns:xlink="http://www.w3.org/1999/xlink"><g id="tight-bounds" transform="matrix(1,0,0,1,0.24000000000003752,0.19995477518989446)"><svg viewBox="0 0 395.5199999999999 64.60009044962023" height="64.60009044962023" width="395.5199999999999"><g><svg viewBox="0 0 583.3064822535613 95.27116584099377" height="64.60009044962023" width="395.5199999999999"><g transform="matrix(1,0,0,1,187.7864822535613,17.475345002281273)"><svg viewBox="0 0 395.52 60.32047583643123" height="60.32047583643123" width="395.52"><g id="textblocktransform"><svg viewBox="0 0 395.52 60.32047583643123" height="60.32047583643123" width="395.52" id="textblock"><g><svg viewBox="0 0 395.52 60.32047583643123" height="60.32047583643123" width="395.52"><g transform="matrix(1,0,0,1,0,0)"><svg width="395.52" viewBox="1.49 -30.98 262.67 40.06" height="60.32047583643123" data-palette-color="#3581c4"><path d="M15.89 0.59Q18.29 0.59 20.5-0.17 22.71-0.93 24.41-2.09 26.12-3.25 27.17-4.52L27.17-4.52 26.32-6.37Q24.58-4.79 22.33-3.75 20.07-2.71 17.77-2.71L17.77-2.71Q14.79-2.71 12.28-4.26 9.77-5.81 8.24-8.83 6.71-11.84 6.71-16.06L6.71-16.06Q6.71-19.9 7.91-22.75 9.11-25.61 11.17-27.14 13.23-28.66 15.8-28.66L15.8-28.66Q18.04-28.66 19.62-27.98 21.19-27.29 22.09-26.12L22.09-26.12 23.12-20.75 25.27-20.43 26.03-28.54Q24.37-29.81 22.07-30.4 19.78-30.98 17.19-30.98L17.19-30.98Q11.94-30.98 8.4-28.45 4.86-25.93 3.17-22.11 1.49-18.29 1.49-14.38L1.49-14.38Q1.49-9.69 3.48-6.3 5.47-2.91 8.76-1.16 12.06 0.59 15.89 0.59L15.89 0.59ZM33.05 0.59Q35.69 0.59 37.36-0.62 39.04-1.83 39.74-3.2L39.74-3.2 40.01-3.2 40.01-2.83Q40.01-2.03 40.39-1.28 40.77-0.54 41.62-0.05 42.48 0.44 43.8 0.44L43.8 0.44Q44.82 0.44 45.99 0.17L45.99 0.17Q46.75 0.02 47.12-0.02L47.12-0.02 47.43-2.12 46.21-2.34Q45.07-2.54 44.49-2.87 43.92-3.2 43.7-3.82 43.48-4.44 43.48-5.62L43.48-5.62 43.48-14.48Q43.48-18.38 42.08-20.18 40.67-21.97 37.45-21.97L37.45-21.97Q35.74-21.97 33.76-21.26 31.78-20.56 30.44-19.4 29.1-18.24 29.1-16.97L29.1-16.97Q29.1-15.38 30.08-14.92 31.05-14.45 32.49-14.45L32.49-14.45Q32.71-16.92 32.87-17.85 33.03-18.77 33.54-19.24 34.06-19.7 35.2-19.7L35.2-19.7Q37.52-19.7 38.52-17.86 39.52-16.02 39.52-13.18L39.52-13.18 39.52-11.84Q35.72-11.57 33.19-10.44 30.66-9.3 29.47-7.64 28.27-5.98 28.27-4.1L28.27-4.1Q28.27-2.66 28.92-1.6 29.56-0.54 30.66 0.02 31.76 0.59 33.05 0.59L33.05 0.59ZM39.52-10.45L39.52-4.59Q38.79-3.78 37.62-3.1 36.45-2.42 35.28-2.42L35.28-2.42Q34.42-2.42 33.8-2.86 33.18-3.3 32.86-3.96 32.54-4.61 32.54-5.25L32.54-5.25Q32.54-7.13 34.13-8.41 35.72-9.69 39.52-10.45L39.52-10.45ZM59.69 0L59.96-1.93 56.46-2.78 56.46-16.43Q57.37-17.46 58.64-18.01 59.91-18.55 61.27-18.55L61.27-18.55Q62.45-18.55 63.4-18.02 64.35-17.48 64.9-16.5 65.45-15.53 65.45-14.28L65.45-14.28 65.45-2.78 62.25-1.81 61.98 0 72.8 0 73.04-1.93 69.43-2.78 69.43-16.11Q70.5-17.26 71.56-17.91 72.63-18.55 74.09-18.55L74.09-18.55Q76-18.55 77.09-17.33 78.19-16.11 78.19-14.28L78.19-14.28 78.19-2.76 75.14-1.78 74.97 0 85.35 0 85.66-1.93 82.29-2.81 82.29-14.87Q82.29-21.68 76.53-21.68L76.53-21.68Q74.36-21.68 72.49-20.59 70.62-19.51 69.33-17.85L69.33-17.85 69.04-17.85Q68.5-19.92 67-20.9 65.5-21.88 63.64-21.88L63.64-21.88Q61.49-21.88 59.55-20.78 57.61-19.68 56.32-18.07L56.32-18.07 56.1-18.07 56.54-21.14 56.1-21.66 48.68-20.63 48.43-18.8 52.34-17.55 52.34-2.78 48.68-1.81 48.43 0 59.69 0ZM97.75 9.08L98.04 7.13 94.23 6.27 94.23-16.26Q95.21-17.29 96.51-18.02 97.82-18.75 99.24-18.75L99.24-18.75Q101.56-18.75 102.73-16.52 103.9-14.28 103.9-9.91L103.9-9.91Q103.9-6.37 102.58-4.27 101.26-2.17 98.8-2.17L98.8-2.17Q97.36-2.17 96.62-2.28 95.89-2.39 95.06-2.71L95.06-2.71 95.21 0.24Q96.43 0.46 97.5 0.46L97.5 0.46Q100.6 0.46 103.08-1.05 105.56-2.56 106.96-5.27 108.37-7.98 108.37-11.4L108.37-11.4Q108.37-14.99 107.41-17.35 106.46-19.7 104.8-20.83 103.14-21.95 100.97-21.95L100.97-21.95Q98.82-21.95 97.11-20.75 95.4-19.56 94.23-17.92L94.23-17.92 94.06-17.92 94.4-21.07 93.89-21.53 86.78-20.63 86.49-18.75 90.25-17.63 90.25 6.25 86.52 7.18 86.37 9.08 97.75 9.08ZM113.52-17.77L113.52-6.52Q113.52-2.78 114.97-1.11 116.42 0.56 118.96 0.56L118.96 0.56Q123.35 0.56 125.94-3.2L125.94-3.2 126.26-3.2 126.26-2.98Q126.26-1.39 127.18-0.42 128.09 0.56 129.85 0.56L129.85 0.56Q130.92 0.56 131.66 0.46 132.39 0.37 133.53 0.1L133.53 0.1 133.75-1.93 132.63-2.17Q131.63-2.39 131.12-2.64 130.61-2.88 130.3-3.48 129.99-4.08 129.99-5.25L129.99-5.25 129.99-20.97 129.48-21.56 122.3-20.9 122.06-18.65 125.94-17.63 125.94-4.66Q125.06-3.76 124-3.27 122.94-2.78 121.4-2.78L121.4-2.78Q117.64-2.78 117.64-7.74L117.64-7.74 117.64-20.97 117.03-21.56 110.49-21.04 110.15-19.12 113.52-17.77ZM142.44 0.83Q144.32 0.83 146.07 0.02 147.81-0.78 148.89-2.21 149.96-3.64 149.96-5.37L149.96-5.37Q149.96-7.01 149.11-8.26 148.25-9.52 147.05-10.38 145.84-11.23 143.88-12.3L143.88-12.3Q142.27-13.21 141.37-13.82 140.47-14.43 139.86-15.22 139.25-16.02 139.25-16.99L139.25-16.99Q139.25-18.21 139.99-19.07 140.73-19.92 141.98-19.92L141.98-19.92Q143.4-19.92 144.37-18.54 145.35-17.16 145.79-14.38L145.79-14.38Q147.38-14.48 148.29-15.36 149.21-16.24 149.21-17.63L149.21-17.63Q149.21-18.85 148.46-19.84 147.72-20.83 146.35-21.4 144.98-21.97 143.22-21.97L143.22-21.97Q140.91-21.97 139.26-20.98 137.61-20 136.78-18.51 135.95-17.02 135.95-15.5L135.95-15.5Q135.95-13.75 136.84-12.4 137.73-11.06 138.99-10.14 140.25-9.23 142.25-8.08L142.25-8.08Q143.71-7.25 144.53-6.7 145.35-6.15 145.89-5.48 146.42-4.81 146.42-4.03L146.42-4.03Q146.42-2.76 145.52-2.16 144.62-1.56 143.2-1.56L143.2-1.56Q141.69-1.56 140.42-2.77 139.15-3.98 138.34-6.37L138.34-6.37Q136.97-6.27 136.17-5.3 135.36-4.32 135.36-2.95L135.36-2.95Q135.36-1.98 136.24-1.1 137.12-0.22 138.73 0.31 140.34 0.83 142.44 0.83L142.44 0.83ZM172.47 0Q177.11 0 180.01-1.31 182.92-2.61 184.19-4.7 185.46-6.79 185.46-9.28L185.46-9.28Q185.46-10.96 184.58-12.55 183.7-14.14 181.99-15.21 180.28-16.28 177.89-16.41L177.89-16.41 177.89-16.58Q180.52-17.53 181.72-19.47 182.92-21.41 182.92-23.61L182.92-23.61Q182.92-25.54 181.78-27.15 180.65-28.76 178.25-29.72 175.86-30.69 172.25-30.69L172.25-30.69Q169.39-30.69 166.69-30.4 164-30.1 160.24-29.57L160.24-29.57 159.99-27.69 164.17-26.95 164.17-2.95 160.09-1.81 159.82 0 172.47 0ZM168.85-28.42Q170-28.59 170.81-28.59L170.81-28.59Q174.86-28.59 176.59-26.73 178.33-24.88 178.33-22.19L178.33-22.19Q178.33-20.12 177.53-18.79 176.74-17.46 175.15-16.8L175.15-16.8 168.85-16.8 168.85-28.42ZM168.85-14.77L174.3-14.77Q176.33-14.77 177.77-13.85 179.21-12.94 179.94-11.5 180.67-10.06 180.67-8.47L180.67-8.47Q180.67-6.86 179.93-5.46 179.18-4.05 177.72-3.2 176.25-2.34 174.23-2.34L174.23-2.34 168.85-2.34 168.85-14.77ZM192.05 0.59Q194.68 0.59 196.35-0.62 198.03-1.83 198.73-3.2L198.73-3.2 199-3.2 199-2.83Q199-2.03 199.38-1.28 199.76-0.54 200.61-0.05 201.47 0.44 202.79 0.44L202.79 0.44Q203.81 0.44 204.98 0.17L204.98 0.17Q205.74 0.02 206.11-0.02L206.11-0.02 206.43-2.12 205.2-2.34Q204.06-2.54 203.48-2.87 202.91-3.2 202.69-3.82 202.47-4.44 202.47-5.62L202.47-5.62 202.47-14.48Q202.47-18.38 201.07-20.18 199.66-21.97 196.44-21.97L196.44-21.97Q194.73-21.97 192.75-21.26 190.78-20.56 189.43-19.4 188.09-18.24 188.09-16.97L188.09-16.97Q188.09-15.38 189.07-14.92 190.04-14.45 191.48-14.45L191.48-14.45Q191.7-16.92 191.86-17.85 192.02-18.77 192.53-19.24 193.05-19.7 194.19-19.7L194.19-19.7Q196.51-19.7 197.51-17.86 198.52-16.02 198.52-13.18L198.52-13.18 198.52-11.84Q194.71-11.57 192.18-10.44 189.65-9.3 188.46-7.64 187.26-5.98 187.26-4.1L187.26-4.1Q187.26-2.66 187.91-1.6 188.55-0.54 189.65 0.02 190.75 0.59 192.05 0.59L192.05 0.59ZM198.52-10.45L198.52-4.59Q197.78-3.78 196.61-3.1 195.44-2.42 194.27-2.42L194.27-2.42Q193.41-2.42 192.79-2.86 192.17-3.3 191.85-3.96 191.53-4.61 191.53-5.25L191.53-5.25Q191.53-7.13 193.12-8.41 194.71-9.69 198.52-10.45L198.52-10.45ZM207.67-2.12L207.77 0 224.15 0 225.17-6.52 223.54-6.71 221.22-2.42 212.43-2.42 224.68-19.51 224.68-21.31 208.28-21.31 208.08-14.84 209.96-14.53 211.4-19.04 219.63-19.04 207.67-2.12ZM232.27 0.59Q234.91 0.59 236.58-0.62 238.26-1.83 238.96-3.2L238.96-3.2 239.23-3.2 239.23-2.83Q239.23-2.03 239.61-1.28 239.99-0.54 240.84-0.05 241.7 0.44 243.02 0.44L243.02 0.44Q244.04 0.44 245.21 0.17L245.21 0.17Q245.97 0.02 246.34-0.02L246.34-0.02 246.65-2.12 245.43-2.34Q244.29-2.54 243.71-2.87 243.14-3.2 242.92-3.82 242.7-4.44 242.7-5.62L242.7-5.62 242.7-14.48Q242.7-18.38 241.3-20.18 239.89-21.97 236.67-21.97L236.67-21.97Q234.96-21.97 232.98-21.26 231.01-20.56 229.66-19.4 228.32-18.24 228.32-16.97L228.32-16.97Q228.32-15.38 229.3-14.92 230.27-14.45 231.71-14.45L231.71-14.45Q231.93-16.92 232.09-17.85 232.25-18.77 232.76-19.24 233.28-19.7 234.42-19.7L234.42-19.7Q236.74-19.7 237.74-17.86 238.74-16.02 238.74-13.18L238.74-13.18 238.74-11.84Q234.94-11.57 232.41-10.44 229.88-9.3 228.69-7.64 227.49-5.98 227.49-4.1L227.49-4.1Q227.49-2.66 228.14-1.6 228.78-0.54 229.88 0.02 230.98 0.59 232.27 0.59L232.27 0.59ZM238.74-10.45L238.74-4.59Q238.01-3.78 236.84-3.1 235.67-2.42 234.5-2.42L234.5-2.42Q233.64-2.42 233.02-2.86 232.4-3.3 232.08-3.96 231.76-4.61 231.76-5.25L231.76-5.25Q231.76-7.13 233.35-8.41 234.94-9.69 238.74-10.45L238.74-10.45ZM261.06 0L261.3-2.12 255.61-2.95 255.61-12.3Q255.86-14.04 256.58-15.23 257.3-16.43 258.18-17.03 259.05-17.63 259.79-17.63L259.79-17.63Q260.49-17.63 261.28-17.37 262.06-17.11 262.77-16.67L262.77-16.67Q264.16-17.85 264.16-19.38L264.16-19.38Q264.16-20.48 263.4-21.3 262.64-22.12 261.45-22.12L261.45-22.12Q260.35-22.12 259.23-21.37 258.1-20.63 257.1-19.14 256.1-17.65 255.47-15.53L255.47-15.53 255-15.53 255.49-21.14 254.93-21.73 247.92-20.83 247.58-18.97 251.56-17.77 251.56-2.78 247.82-1.81 247.58 0 261.06 0Z" opacity="1" transform="matrix(1,0,0,1,0,0)" fill="#3581c4" class="wordmark-text-0" data-fill-palette-color="primary" id="text-0"></path></svg></g></svg></g></svg></g></svg></g><g><svg viewBox="0 0 173.54626559999997 95.27116584099377" height="95.27116584099377" width="173.54626559999997"><g><svg xmlns="http://www.w3.org/2000/svg" xmlns:xlink="http://www.w3.org/1999/xlink" xmlns:a="http://ns.adobe.com/AdobeSVGViewerExtensions/3.0/" version="1.1" x="0" y="0" viewBox="0 0 92.736 50.909000000000006" enable-background="new -3.5 -16.25 100 100" xml:space="preserve" height="95.27116584099377" width="173.54626559999997" class="icon-icon-0" data-fill-palette-color="accent" id="icon-0"><polygon points="14.702,0 0,0 0,2.976 0,9.682 0,50.909 1.225,50.909 1.225,9.682 14.702,9.682 " fill="#b96013" data-fill-palette-color="accent"></polygon><path d="M36.861 25.671V15.319h1.34v-2.541H3.252v2.541h2.163v35.59h6.294 1.806 15.791 1.242 3.454 2.858H91.78V28.213h0.956v-2.542H36.861zM21.782 18.744h5.157v4.629h-5.157V18.744zM15.164 18.744h5.158v4.629h-5.158V18.744zM8.547 23.373v-4.629h5.157v4.629H8.547zM13.516 49.79V34.196h15.791V49.79H13.516zM33.557 23.373h-5.158v-4.629h5.158V23.373zM51.251 43.452h-13.05v-9.256h13.05V43.452zM71.591 43.452H54.736v-9.256h16.854V43.452zM88.097 43.452H75.046v-9.256h13.051V43.452z" fill="#b96013" data-fill-palette-color="accent"></path></svg></g></svg></g></svg></g><defs></defs></svg><rect width="395.5199999999999" height="64.60009044962023" fill="none" stroke="none" visibility="hidden"></rect></g></svg></g></svg>